<svg width="175" height="56" viewBox="0 0 175 56" fill="none" xmlns="http://www.w3.org/2000/svg">
<path d="M91.3343 0.318176H95.9314C99.0836 0.318176 101.185 2.82272 101.185 6.38181C101.185 8.35909 100.528 9.9409 99.3463 10.9955C98.4269 11.7864 97.2448 12.1818 95.6687 12.1818H91.203V0.318176H91.3343ZM95.5373 10.0727C97.7702 10.0727 98.6896 8.75454 98.6896 6.38181C98.6896 4.00909 97.6388 2.42727 95.6687 2.42727H93.6985V10.2045H95.5373V10.0727Z" fill="white"/>
<path d="M107.227 11.2591C106.701 11.9182 106.176 12.4454 104.731 12.4454C103.024 12.4454 101.71 11.5227 101.71 9.80908C101.71 7.96363 103.287 7.30454 105.125 7.0409C106.57 6.77727 107.227 6.77727 107.227 6.11818C107.227 5.45908 106.701 5.06363 105.782 5.06363C104.731 5.06363 104.206 5.45908 104.206 6.24999H102.236C102.367 4.79999 103.418 3.48181 105.913 3.48181C108.409 3.48181 109.46 4.66818 109.46 6.64545V10.8636C109.46 11.5227 109.591 11.9182 109.722 12.05V12.1818H107.49C107.358 12.05 107.358 11.6545 107.227 11.2591ZM107.227 9.14999V7.83181C106.833 8.09545 106.176 8.22727 105.651 8.35908C104.469 8.62272 103.943 8.88636 103.943 9.67727C103.943 10.4682 104.469 10.7318 105.257 10.7318C106.57 10.8636 107.227 9.9409 107.227 9.14999Z" fill="white"/>
<path d="M110.116 3.61366H111.299V0.977295H113.531V3.61366H114.976V5.06366H113.531V9.54548C113.531 10.2046 113.925 10.3364 114.319 10.3364C114.582 10.3364 114.976 10.3364 114.976 10.3364V12.1818C114.976 12.1818 114.451 12.1818 113.531 12.1818C112.481 12.1818 111.167 11.7864 111.167 10.0727V5.19548H109.985V3.61366H110.116Z" fill="white"/>
<path d="M121.281 11.2591C120.755 11.9182 120.23 12.4454 118.785 12.4454C117.078 12.4454 115.764 11.5227 115.764 9.80908C115.764 7.96363 117.34 7.30454 119.179 7.0409C120.624 6.77727 121.281 6.77727 121.281 6.11818C121.281 5.45908 120.755 5.06363 119.836 5.06363C118.785 5.06363 118.26 5.45908 118.26 6.24999H116.29C116.29 4.79999 117.472 3.48181 119.967 3.48181C122.463 3.48181 123.513 4.66818 123.513 6.64545V10.8636C123.513 11.5227 123.645 11.9182 123.776 12.05V12.1818H121.543C121.412 12.05 121.412 11.6545 121.281 11.2591ZM121.281 9.14999V7.83181C120.887 8.09545 120.361 8.22727 119.704 8.35908C118.522 8.62272 117.997 8.88636 117.997 9.67727C117.997 10.4682 118.522 10.7318 119.31 10.7318C120.624 10.8636 121.281 9.9409 121.281 9.14999Z" fill="white"/>
<path d="M91.3344 19.3H93.6985V31.1636H91.3344V19.3Z" fill="white"/>
<path d="M97.6389 23.7818C98.2956 22.8591 99.0836 22.3318 100.266 22.3318C101.973 22.3318 103.155 23.65 103.155 25.4955V31.0318H100.922V25.7591C100.922 24.8364 100.397 24.1773 99.4777 24.1773C98.4269 24.1773 97.7702 24.9682 97.7702 26.1546V31.0318H95.5374V22.4637H97.7702V23.7818H97.6389Z" fill="white"/>
<path d="M103.812 22.5955H104.994V19.9591H107.227V22.5955H108.672V24.0455H107.227V28.5273C107.227 29.1864 107.621 29.3182 108.015 29.3182C108.278 29.3182 108.672 29.3182 108.672 29.3182V31.0318C108.672 31.0318 108.146 31.0318 107.227 31.0318C106.176 31.0318 104.863 30.6364 104.863 28.9227V23.9137H103.812V22.5955Z" fill="white"/>
<path d="M109.328 26.8137C109.328 24.3091 111.036 22.3318 113.531 22.3318C116.29 22.3318 117.734 24.4409 117.734 27.4728H111.561C111.693 28.7909 112.481 29.5818 113.794 29.5818C114.713 29.5818 115.239 29.1864 115.37 28.5273H117.603C117.34 29.9773 115.896 31.2955 113.794 31.2955C110.904 31.4273 109.328 29.45 109.328 26.8137ZM111.561 26.0228H115.37C115.37 24.9682 114.582 24.1773 113.531 24.1773C112.349 24.1773 111.693 24.8364 111.561 26.0228Z" fill="white"/>
<path d="M118.785 19.3H121.018V31.1636H118.785V19.3Z" fill="white"/>
<path d="M122.463 19.3H124.827V31.1636H122.594V19.3H122.463Z" fill="white"/>
<path d="M126.272 19.3H128.504V21.2773H126.272V19.3ZM126.272 22.5954H128.504V31.1636H126.272V22.5954Z" fill="white"/>
<path d="M129.687 31.4273H131.919C132.051 31.9545 132.576 32.35 133.627 32.35C134.94 32.35 135.466 31.6909 135.466 30.6364V29.7136C134.94 30.2409 134.284 30.7682 133.233 30.7682C131.394 30.7682 129.555 29.3182 129.555 26.6818C129.555 24.1773 131.131 22.4636 133.233 22.4636C134.284 22.4636 135.072 22.8591 135.597 23.65V22.7273H137.83V30.6364C137.83 31.8227 137.436 32.6136 136.779 33.2727C136.122 33.9318 134.94 34.1954 133.758 34.1954C131.394 34.0636 129.949 33.0091 129.687 31.4273ZM135.728 26.55C135.728 25.3636 135.072 24.1773 133.758 24.1773C132.576 24.1773 131.788 25.1 131.788 26.55C131.788 28 132.576 28.7909 133.758 28.7909C135.072 28.7909 135.728 27.7364 135.728 26.55Z" fill="white"/>
<path d="M138.881 26.8137C138.881 24.3091 140.588 22.3318 143.084 22.3318C145.842 22.3318 147.287 24.4409 147.287 27.4728H141.113C141.245 28.7909 142.033 29.5818 143.346 29.5818C144.266 29.5818 144.791 29.1864 144.922 28.5273H147.155C146.893 29.9773 145.448 31.2955 143.346 31.2955C140.457 31.4273 138.881 29.45 138.881 26.8137ZM141.113 26.0228H144.922C144.922 24.9682 144.134 24.1773 143.084 24.1773C141.902 24.1773 141.245 24.8364 141.113 26.0228Z" fill="white"/>
<path d="M150.439 23.7818C151.095 22.8591 151.884 22.3318 153.066 22.3318C154.773 22.3318 155.955 23.65 155.955 25.4955V31.0318H153.722V25.7591C153.722 24.8364 153.197 24.1773 152.278 24.1773C151.227 24.1773 150.57 24.9682 150.57 26.1546V31.0318H148.337V22.4637H150.57V23.7818H150.439Z" fill="white"/>
<path d="M156.875 26.9454C156.875 24.4409 158.582 22.4636 161.078 22.4636C163.31 22.4636 164.624 23.7818 164.887 25.6273H162.654C162.522 24.8364 161.866 24.3091 161.078 24.3091C159.764 24.3091 158.976 25.3636 158.976 26.9454C158.976 28.5273 159.633 29.5818 160.946 29.5818C161.866 29.5818 162.522 29.0545 162.654 28.1318H164.887C164.755 29.9773 163.31 31.4273 161.078 31.4273C158.582 31.4273 156.875 29.45 156.875 26.9454Z" fill="white"/>
<path d="M165.675 26.8137C165.675 24.3091 167.382 22.3318 169.878 22.3318C172.636 22.3318 174.081 24.4409 174.081 27.4728H167.908C168.039 28.7909 168.827 29.5818 170.14 29.5818C171.06 29.5818 171.585 29.1864 171.716 28.5273H173.949C173.687 29.9773 172.242 31.2955 170.14 31.2955C167.251 31.4273 165.675 29.45 165.675 26.8137ZM167.908 26.0228H171.716C171.585 24.9682 170.928 24.1773 169.878 24.1773C168.696 24.1773 168.039 24.8364 167.908 26.0228Z" fill="white"/>
<path d="M90.809 44.2136C90.809 40.6546 93.0418 38.0182 96.4567 38.0182C99.3463 38.0182 101.054 39.7318 101.316 41.9727H98.9522C98.6896 40.7864 97.9015 39.9955 96.4567 39.9955C94.2239 39.9955 93.1731 41.8409 93.1731 44.2136C93.1731 46.5864 94.4866 48.4318 96.4567 48.4318C97.9015 48.4318 98.8209 47.6409 98.9522 46.3227H101.316C101.185 47.3773 100.791 48.4318 100.003 49.0909C99.2149 49.8818 98.0328 50.4091 96.4567 50.4091C93.1731 50.4091 90.809 47.7727 90.809 44.2136Z" fill="white"/>
<path d="M102.499 38.2818H104.731V50.1454H102.499V38.2818Z" fill="white"/>
<path d="M105.782 45.9273C105.782 43.4228 107.621 41.4455 110.248 41.4455C112.875 41.4455 114.713 43.4228 114.713 45.9273C114.713 48.4319 112.875 50.4091 110.248 50.4091C107.621 50.4091 105.782 48.4319 105.782 45.9273ZM112.349 45.9273C112.349 44.2137 111.561 43.1591 110.248 43.1591C108.803 43.1591 108.146 44.3455 108.146 45.9273C108.146 47.5091 108.934 48.6955 110.248 48.6955C111.561 48.6955 112.349 47.5091 112.349 45.9273Z" fill="white"/>
<path d="M121.018 50.1455V49.0909C120.493 49.8818 119.836 50.2773 118.522 50.2773C116.684 50.4091 115.633 49.0909 115.633 47.2455V41.5773H117.866V46.85C117.866 47.9045 118.26 48.4318 119.31 48.4318C120.361 48.4318 121.018 47.6409 121.018 46.4545V41.5773H123.251V50.1455H121.018Z" fill="white"/>
<path d="M124.302 45.9273C124.302 43.2909 125.746 41.4455 127.979 41.4455C129.161 41.4455 129.949 41.9727 130.343 42.7636V38.4136H132.576V50.2773H130.343V49.2227C129.818 50.0136 129.03 50.5409 127.848 50.5409C125.746 50.4091 124.302 48.5636 124.302 45.9273ZM130.475 45.9273C130.475 44.3455 129.949 43.1591 128.505 43.1591C127.322 43.1591 126.666 44.2136 126.666 45.7955C126.666 47.3773 127.322 48.4318 128.505 48.4318C129.687 48.4318 130.475 47.5091 130.475 45.9273Z" fill="white"/>
<mask id="mask0" mask-type="alpha" maskUnits="userSpaceOnUse" x="0" y="6" width="51" height="44">
<path fill-rule="evenodd" clip-rule="evenodd" d="M50.4741 6.56238H0.957699V49.5351H50.4741V6.56238Z" fill="white"/>
</mask>
<g mask="url(#mask0)">
<path fill-rule="evenodd" clip-rule="evenodd" d="M17.1129 18.8215H18.295C20.3965 11.7033 27.095 6.56238 35.2383 6.56238C41.6741 6.56238 47.4532 9.98965 50.4741 15.1306H37.4711V49.5351H16.1935C6.7368 49.5351 0.957699 42.6806 0.957699 34.1124C0.957699 25.5442 8.18158 18.8215 17.1129 18.8215Z" fill="#72BF00"/>
</g>
<path fill-rule="evenodd" clip-rule="evenodd" d="M69.4001 34.1955C69.4001 25.7592 62.1762 18.7728 53.1135 18.7728H51.9314C51.5374 17.4546 51.012 16.2683 50.3553 15.0819H77.5433V55.2865H37.4836V49.4865H54.1642C63.6209 49.4865 69.4001 42.6319 69.4001 34.1955Z" fill="#BDCCD4"/>
<path fill-rule="evenodd" clip-rule="evenodd" d="M50.4866 15.0819C51.1433 16.2683 51.6687 17.4546 52.0627 18.7728H53.2448C62.1761 18.7728 69.5314 25.6274 69.5314 34.1955C69.5314 42.7637 63.7523 49.6183 54.2956 49.6183H37.4836V15.0819H50.4866Z" fill="#03755F"/>
</svg>
