<svg width="47" height="40" viewBox="0 0 47 40" fill="none" xmlns="http://www.w3.org/2000/svg">
<path d="M32.7093 25.3546C30.6416 24.4799 29.1874 22.4147 29.1874 20.0048C29.1874 17.1803 31.185 14.8305 33.8281 14.3151L36.6885 10.0709L27.2873 10.0818V5.3728H3.25446V20.6711H15.8112C14.003 19.326 12.8249 17.1647 12.8249 14.7204C12.8249 10.639 16.094 7.33098 20.1273 7.33098C24.1602 7.33098 27.4298 10.639 27.4298 14.7204C27.4298 18.7526 24.236 22.0246 20.2692 22.1019L20.2723 24.2836C22.1729 24.3018 23.9862 24.6841 25.6505 25.3629L32.7093 25.3546Z" fill="#BDCCD4"/>
<path d="M3.25466 5.37305H1.62708V39.1759H3.25466V20.6714V5.37305Z" fill="#03755F"/>
<path d="M3.42571 3.7198C4.36748 3.1689 4.69052 1.94961 4.1461 0.996629C3.60272 0.0436496 2.39828 -0.283235 1.45548 0.267665C0.513717 0.817521 0.190678 2.03629 0.735097 2.98979C1.27848 3.94329 2.48343 4.27018 3.42571 3.7198Z" fill="#03755F"/>
<path d="M29.1875 20.0048C29.1875 22.4146 30.6412 24.4799 32.7095 25.3545C33.3891 25.6422 34.1337 25.802 34.9165 25.802C38.0804 25.802 40.6451 23.2068 40.6451 20.0048C40.6451 16.8033 38.0804 14.2075 34.9165 14.2075C34.544 14.2075 34.1807 14.2467 33.8282 14.3151C31.1851 14.8305 29.1875 17.1803 29.1875 20.0048Z" fill="#72BF00"/>
<mask id="mask0" mask-type="alpha" maskUnits="userSpaceOnUse" x="30" y="27" width="17" height="13">
<path d="M30.3594 27.5045H46.5191V39.2447H30.3594V27.5045Z" fill="white"/>
</mask>
<g mask="url(#mask0)">
<path d="M34.9166 27.5045C33.2988 27.5045 31.7589 27.8408 30.3594 28.446C33.1662 31.1697 34.9166 34.9994 34.9166 39.2447H46.5191C46.5191 32.7603 41.3242 27.5045 34.9166 27.5045Z" fill="#72BF00"/>
</g>
<path d="M27.4295 14.7203C27.4295 10.6394 24.1604 7.33142 20.127 7.33142C16.0942 7.33142 12.8246 10.6394 12.8246 14.7203C12.8246 17.1651 14.0032 19.3259 15.8109 20.671C17.021 21.5713 18.5103 22.1091 20.127 22.1091C20.175 22.1091 20.2215 22.1034 20.2695 22.1023C24.2362 22.0245 27.4295 18.7531 27.4295 14.7203Z" fill="#03755F"/>
<mask id="mask1" mask-type="alpha" maskUnits="userSpaceOnUse" x="5" y="24" width="30" height="16">
<path d="M5.33759 24.2794H34.9163V39.245H5.33759V24.2794Z" fill="white"/>
</mask>
<g mask="url(#mask1)">
<path d="M30.3597 28.4459C29.0092 27.1352 27.4147 26.0825 25.6509 25.3629C23.9861 24.6841 22.1728 24.3019 20.2722 24.2836C20.2237 24.2831 20.1762 24.2794 20.1272 24.2794C11.9594 24.2794 5.33759 30.9795 5.33759 39.2451H23.3137H34.9163C34.9163 34.9993 33.1659 31.1696 30.3597 28.4459Z" fill="#03755F"/>
</g>
</svg>
